<?xml version="1.0" encoding="UTF-8"?>
<svg version="1.1" xmlns="http://www.w3.org/2000/svg" width="250" height="250">
<path d="M0 0 C0 0.99 0 1.98 0 3 C18.73495141 3.91634542 37.42569273 4.15917657 56.17797852 4.13037109 C59.94232002 4.12465889 63.70659097 4.1280675 67.4709301 4.13382339 C84.33823962 4.15553085 101.15334099 3.9441097 118 3 C118.10973145 2.36473389 118.21946289 1.72946777 118.33251953 1.07495117 C118.66292236 0.04785034 118.66292236 0.04785034 119 -1 C128.78518635 -5.37908486 140.13257047 -4.7023248 150 -1 C152 1 152 1 152 4 C152.83724609 4.27070312 152.83724609 4.27070312 153.69140625 4.546875 C157.15655099 6.72798133 158.82738946 9.79960822 160.9375 13.25 C161.60217285 14.33680054 161.60217285 14.33680054 162.28027344 15.44555664 C174.44874342 35.92436527 177.38534766 61.8602438 181.46289062 84.96386719 C182.29114249 89.64574911 183.14579052 94.32279577 184 99 C183.01 99 182.02 99 181 99 C181.05647705 100.13429443 181.1129541 101.26858887 181.17114258 102.43725586 C181.37521551 106.67998925 181.54368734 110.92354272 181.7019043 115.16821289 C181.77500754 116.99869868 181.85752663 118.82883528 181.94995117 120.65844727 C182.92532728 140.21393871 182.92532728 140.21393871 177 147 C176.37738281 147.76054687 175.75476563 148.52109375 175.11328125 149.3046875 C168.97656368 154.65601172 162.56926833 157.4851428 154.3125 156.9375 C145.7638026 155.48526944 139.14742941 149.7571379 134 143 C129.92209792 135.21468816 126.89691323 126.87983849 123.75 118.6875 C123.30398437 117.54732422 122.85796875 116.40714844 122.3984375 115.23242188 C121.97304687 114.12833984 121.54765625 113.02425781 121.109375 111.88671875 C120.72749023 110.89889404 120.34560547 109.91106934 119.95214844 108.89331055 C118.97817388 105.93367658 118.43105333 103.0816883 118 100 C115.10770619 100.46276701 112.93467387 101.53978816 110.4375 103 C104.92596278 106.20671256 100.27361809 106.92506433 94 106 C84.05511811 102.05511811 84.05511811 102.05511811 81 99 C74.89499995 98.68092334 68.78754933 98.64286445 62.67504883 98.5949707 C60.61595791 98.57348987 58.55695582 98.53950652 56.49829102 98.49243164 C40.67089073 97.86977341 40.67089073 97.86977341 27 105 C19.88235664 107.37254779 13.53668299 106.31743086 6.91015625 103.0703125 C5.22614436 102.12671484 3.60615291 101.07076861 2 100 C1.34 100 0.68 100 0 100 C-0.33064453 101.53140625 -0.33064453 101.53140625 -0.66796875 103.09375 C-2.16657654 109.07239248 -4.3907927 114.80032519 -6.57592773 120.55419922 C-7.30958934 122.49231091 -8.02907632 124.43530473 -8.74804688 126.37890625 C-13.13589066 138.08310345 -18.23939888 147.88130564 -28.9375 154.9375 C-36.69126216 157.62758075 -43.51351592 157.59069613 -51 154 C-58.09930379 149.348732 -61.68742913 144.09399803 -64 136 C-64.25934326 135.16988403 -64.25934326 135.16988403 -64.52392578 134.32299805 C-65.19030246 131.07142159 -65.22238575 127.84154559 -65.2734375 124.53515625 C-65.28596558 123.79840164 -65.29849365 123.06164703 -65.31140137 122.30256653 C-65.57569282 102.9225856 -64.1314797 85.00159147 -60 66 C-59.50142845 63.57836676 -59.00404109 61.15648943 -58.5078125 58.734375 C-54.38018496 38.99932356 -50.00355524 19.31638855 -36 4 C-35.34 4 -34.68 4 -34 4 C-33.979375 3.401875 -33.95875 2.80375 -33.9375 2.1875 C-32.69441675 -0.71302758 -30.91961379 -1.24015605 -28.08203125 -2.38671875 C-18.82048151 -5.1147925 -8.54598124 -4.57110625 0 0 Z " fill="#000000" transform="translate(66,48)"/>
<path d="M0 0 C21.78 0 43.56 0 66 0 C66.04125 6.88875 66.0825 13.7775 66.125 20.875 C66.14320801 23.0494873 66.16141602 25.22397461 66.18017578 27.46435547 C66.1860153 29.18196363 66.19111214 30.89957455 66.1953125 32.6171875 C66.20554443 33.51381104 66.21577637 34.41043457 66.22631836 35.33422852 C66.22668091 36.61293823 66.22668091 36.61293823 66.22705078 37.91748047 C66.231492 38.65916473 66.23593323 39.400849 66.24050903 40.16500854 C66 42 66 42 64 44 C61.41918945 44.25396729 61.41918945 44.25396729 58.11328125 44.25878906 C56.87860107 44.26509338 55.6439209 44.27139771 54.37182617 44.27789307 C53.018716 44.27431338 51.66560713 44.27021145 50.3125 44.265625 C48.93009371 44.26697175 47.54768787 44.26891236 46.1652832 44.27142334 C43.26671849 44.27437418 40.36827697 44.27007836 37.46972656 44.26074219 C33.75039363 44.24934755 30.03134932 44.25590725 26.31202698 44.26788712 C23.45704973 44.27510688 20.60214115 44.27281728 17.74716187 44.26763153 C16.37559983 44.26629535 15.00403161 44.26794166 13.63247681 44.27259064 C11.7172253 44.27765748 9.80195199 44.26856831 7.88671875 44.25878906 C6.79576904 44.25719788 5.70481934 44.25560669 4.58081055 44.25396729 C2 44 2 44 0 42 C-0.24050903 40.16500854 -0.24050903 40.16500854 -0.22705078 37.91748047 C-0.22680908 37.06500732 -0.22656738 36.21253418 -0.22631836 35.33422852 C-0.21608643 34.43760498 -0.20585449 33.54098145 -0.1953125 32.6171875 C-0.19329834 31.79355713 -0.19128418 30.96992676 -0.18920898 30.12133789 C-0.17873023 27.03916876 -0.1508077 23.9570789 -0.125 20.875 C-0.08375 13.98625 -0.0425 7.0975 0 0 Z " fill="#020202" transform="translate(92,52)"/>
<path d="M0 0 C4.38245165 2.01576454 7.25519516 4.13560446 9.91015625 8.27734375 C11.60195091 13.35272772 11.47387492 17.59698811 9.28515625 22.46484375 C7.08165219 26.37796304 5.13775884 28.46551407 0.91015625 30.27734375 C-4.03639723 31.06163735 -8.82686199 31.48895747 -13.3515625 29.06640625 C-17.20499875 25.88348407 -19.65310241 22.76638288 -20.53125 17.76171875 C-20.77340938 12.29360375 -20.47188535 8.96907663 -16.83984375 4.71484375 C-11.98162906 -0.27832135 -6.94862678 -2.40279618 0 0 Z " fill="#F9F9F9" transform="translate(90.08984375,113.72265625)"/>
<path d="M0 0 C4.46582323 2.27669419 8.77557394 5.39023195 11 10 C11.9069433 15.29181697 11.67596881 19.57006598 9.375 24.4375 C5.08246492 29.06891943 1.92955436 31.23978629 -4.4375 31.5625 C-9.05544638 31.37401239 -12.09552289 30.55881744 -15.62890625 27.55078125 C-18.83983269 23.91904963 -19.84794222 20.21646227 -20.4375 15.5 C-19.79102105 10.32816841 -18.1020765 6.84629286 -14.234375 3.44921875 C-9.38151827 0.05795076 -5.86221275 -0.85096637 0 0 Z " fill="#FAFAFA" transform="translate(169,113)"/>
<path d="M0 0 C2.475 0.495 2.475 0.495 5 1 C5.02505615 2.2367749 5.0501123 3.4735498 5.07592773 4.74780273 C5.16982253 9.31936713 5.27008629 13.89077318 5.37231445 18.4621582 C5.41573144 20.44389146 5.45740137 22.42566378 5.49731445 24.4074707 C5.55485383 27.2496317 5.61859445 30.09159483 5.68359375 32.93359375 C5.70030624 33.82525742 5.71701874 34.71692108 5.73423767 35.63560486 C5.436587 39.63948395 5.436587 39.63948395 7 43 C8.92761817 43.09920863 10.85889354 43.12799365 12.7890625 43.12939453 C14.0270459 43.13254669 15.2650293 43.13569885 16.54052734 43.13894653 C17.90201859 43.13715675 19.26350951 43.1351058 20.625 43.1328125 C22.01123064 43.13348559 23.39746117 43.13445566 24.78369141 43.13571167 C27.69239422 43.1371884 30.60106637 43.1350349 33.50976562 43.13037109 C37.24596598 43.12467381 40.98209452 43.12795294 44.71829224 43.13394356 C47.58179266 43.13754985 50.44527593 43.13641027 53.30877686 43.13381577 C54.68674732 43.13314668 56.06471932 43.13397426 57.44268799 43.13629532 C59.36543754 43.13882292 61.28819252 43.13429024 63.2109375 43.12939453 C64.30712402 43.12859894 65.40331055 43.12780334 66.53271484 43.12698364 C68.94423351 43.27904235 68.94423351 43.27904235 70 42 C70.1603556 38.97192956 70.25960448 35.96414546 70.31640625 32.93359375 C70.3475779 31.57065941 70.3475779 31.57065941 70.37937927 30.18019104 C70.44497672 27.26604054 70.5038068 24.35179696 70.5625 21.4375 C70.60567554 19.46678709 70.64928951 17.49608374 70.69335938 15.52539062 C70.80066843 10.68369012 70.90190675 5.84189563 71 1 C73.475 0.505 73.475 0.505 76 0 C75.95582264 5.89044095 75.88596274 11.77981252 75.79248047 17.66967773 C75.76428739 19.67252076 75.74306458 21.6754747 75.72900391 23.6784668 C75.70755146 26.56096107 75.66088944 29.44212409 75.609375 32.32421875 C75.60814636 33.21711105 75.60691772 34.11000336 75.60565186 35.029953 C75.50784325 39.19898244 75.35166382 41.44077554 73.08691406 45.04223633 C69.70787781 48.21215815 67.6213518 48.14301619 63.0690918 48.20874023 C61.82407394 48.22803085 60.57905609 48.24732147 59.29631042 48.26719666 C57.93062375 48.28200298 56.56492554 48.29577654 55.19921875 48.30859375 C54.51224222 48.31516558 53.82526569 48.3217374 53.11747169 48.32850838 C49.48076054 48.36109832 45.84407863 48.38554936 42.20727539 48.4050293 C39.19902886 48.42284064 36.19172013 48.45765483 33.18383789 48.50756836 C29.55041917 48.56779094 25.91786964 48.59850695 22.2839756 48.60820198 C20.90083515 48.61675508 19.51771784 48.63557046 18.1348629 48.6649456 C7.66151227 48.87543586 7.66151227 48.87543586 4.03697205 46.96569824 C0.02591369 42.91557358 0.26945466 37.53448375 0.29296875 32.2265625 C0.27784744 31.3028183 0.26272614 30.3790741 0.24714661 29.42733765 C0.20434897 26.49297524 0.19543927 23.55964311 0.1875 20.625 C0.16434953 18.62887901 0.13898305 16.63278241 0.11132812 14.63671875 C0.04855405 9.75772174 0.01615684 4.87936507 0 0 Z " fill="#EBEBEB" transform="translate(87,52)"/>
<path d="M0 0 C3.71317907 1.14770989 5.2692056 1.85342428 7.4375 5.0625 C8 8 8 8 7.4375 11.0625 C4.98155875 14.38524404 3.5118356 15.83868008 -0.5625 16.6875 C-4.6368356 15.83868008 -6.10655875 14.38524404 -8.5625 11.0625 C-9.1875 8.0625 -9.1875 8.0625 -8.5625 5.0625 C-5.88937913 1.25532785 -4.71546409 0.08272744 0 0 Z " fill="#D2585B" transform="translate(221.5625,81.9375)"/>
<path d="M0 0 C4.07390532 1.33327811 5.42613937 2.35369882 7.4375 6.125 C7.51777379 10.05841567 6.8991714 11.59543575 4.3125 14.5625 C1.4375 16.125 1.4375 16.125 -2.1875 16.125 C-5.5625 15.125 -5.5625 15.125 -7.5 13.4375 C-8.9238395 10.3385552 -9.11403827 8.50317188 -8.5625 5.125 C-5.89616981 1.32749942 -4.69543738 0.16475219 0 0 Z " fill="#CE85B9" transform="translate(186.5625,81.875)"/>
<path d="M0 0 C2.4375 1.5625 2.4375 1.5625 4 4 C4.56288002 7.94016013 4.60396028 10.05782196 2.4375 13.4375 C-0.94217804 15.60396028 -3.05983987 15.56288002 -7 15 C-9.4375 13.4375 -9.4375 13.4375 -11 11 C-11.56288002 7.05983987 -11.60396028 4.94217804 -9.4375 1.5625 C-6.05782196 -0.60396028 -3.94016013 -0.56288002 0 0 Z " fill="#38CD92" transform="translate(207,65)"/>
<path d="M0 0 C1 1 1 1 1.1328125 3.46875 C1.13023438 4.4690625 1.12765625 5.469375 1.125 6.5 C1.12886719 8.00046875 1.12886719 8.00046875 1.1328125 9.53125 C1 12 1 12 0 13 C-5.45621343 13.64083044 -9.64562148 13.93764666 -14.25 10.75 C-16 8 -16 8 -16.125 5.9375 C-12.30539416 -0.64071006 -6.94954467 -0.78504116 0 0 Z " fill="#F1F1F1" transform="translate(67,84)"/>
<path d="M0 0 C2.875 1.5625 2.875 1.5625 5 4 C5.63734462 7.96569988 5.61999672 10.03280512 3.4375 13.4375 C0.05782196 15.60396028 -2.05983987 15.56288002 -6 15 C-8.4375 13.4375 -8.4375 13.4375 -10 11 C-10.56783945 7.02512383 -10.62340519 4.93510779 -8.375 1.5625 C-5.26456309 -0.48384007 -3.66322334 -0.59807728 0 0 Z " fill="#6886C4" transform="translate(206,100)"/>
<path d="M0 0 C1.50046875 0.00386719 1.50046875 0.00386719 3.03125 0.0078125 C4.0315625 0.00523438 5.031875 0.00265625 6.0625 0 C8.53125 0.1328125 8.53125 0.1328125 9.53125 1.1328125 C10.07824576 5.97507009 10.18497716 9.92220666 7.84375 14.2578125 C5.53125 16.1328125 5.53125 16.1328125 3.03125 16.6953125 C0.53125 16.1328125 0.53125 16.1328125 -1.78125 14.8203125 C-4.44694185 10.57495141 -3.96184168 6.02331192 -3.46875 1.1328125 C-2.46875 0.1328125 -2.46875 0.1328125 0 0 Z " fill="#F3F3F3" transform="translate(44.46875,69.8671875)"/>
<path d="M0 0 C2.86130829 0.31792314 4.82885783 0.89823979 7.3125 2.375 C10.09163663 6.69810142 9.24059226 10.94756248 9 16 C4.71 16 0.42 16 -4 16 C-4.49230769 5.78461538 -4.49230769 5.78461538 -2 1.8125 C-1.34 1.214375 -0.68 0.61625 0 0 Z " fill="#F5F5F5" transform="translate(45,95)"/>
<path d="M0 0 C10.09636651 -0.60821485 10.09636651 -0.60821485 14.25 2.1875 C16 5 16 5 16.0625 7.625 C14.77051973 10.51295591 13.70865329 11.38957411 11 13 C7.28911458 13.38871006 3.74349839 13.13369637 0 13 C0 8.71 0 4.42 0 0 Z " fill="#F5F5F5" transform="translate(27,84)"/>
</svg>
